HIERARCHY
ROOT Root
{
	OFFSET 0.00000 0.00000 0.00000
	CHANNELS 6 Xposition Yposition Zposition Zrotation Xrotation Yrotation
	JOINT Hip
	{
		OFFSET 0 0 0	
		CHANNELS 3 Zrotation Xrotation Yrotation
		JOINT Tummy
		{
			OFFSET 0 0.04 0	
			CHANNELS 3 Zrotation Xrotation Yrotation
			JOINT ChestBottom
			{
				OFFSET 0 0.194 0	
				CHANNELS 3 Zrotation Xrotation Yrotation
				JOINT ChestTop
				{
					OFFSET 0 0.166 0	
					CHANNELS 3 Zrotation Xrotation Yrotation
					JOINT LeftCollar
					{
						OFFSET 0 0.1 0	
						CHANNELS 3 Zrotation Xrotation Yrotation
						JOINT LeftUpperArm
						{
							OFFSET 0.156 -0.02 0.03	
							CHANNELS 3 Zrotation Xrotation Yrotation
							JOINT LeftForeArm
							{
								OFFSET 0.035 -0.27 -0.01	
								CHANNELS 3 Zrotation Xrotation Yrotation
								JOINT LeftHand
								{
									OFFSET 0.01 -0.27 0.01	
									CHANNELS 3 Zrotation Xrotation Yrotation
									End Site
									{
										OFFSET 0 -0.15 0
									}
								}
							}
						}
					}
					JOINT RightCollar
					{
						OFFSET 0 0.1 0	
						CHANNELS 3 Zrotation Xrotation Yrotation
						JOINT RightUpperArm
						{
							OFFSET -0.156 -0.02 0.03	
							CHANNELS 3 Zrotation Xrotation Yrotation
							JOINT RightForeArm
							{
								OFFSET -0.035 -0.27 -0.01	
								CHANNELS 3 Zrotation Xrotation Yrotation
								JOINT RightHand
								{
									OFFSET -0.01 -0.27 0.01	
									CHANNELS 3 Zrotation Xrotation Yrotation
									End Site
									{
										OFFSET 0 -0.15 0
									}
								}
							}
						}
					}
					JOINT Neck
					{
						OFFSET 0 0.1 0	
						CHANNELS 3 Zrotation Xrotation Yrotation
						JOINT Head
						{
							OFFSET 0 0.127 0.03	
							CHANNELS 3 Zrotation Xrotation Yrotation
							End Site
							{
								OFFSET 0 0.127 0.03
							}
						}
					}
				}
			}
		}
	}
	JOINT LeftHip
	{
		OFFSET 0 0 0	
		CHANNELS 3 Zrotation Xrotation Yrotation
		JOINT LeftThigh
		{
			OFFSET 0.088 -0.06 0	
			CHANNELS 3 Zrotation Xrotation Yrotation
			JOINT LeftLowerLeg
			{
				OFFSET 0 -0.39 0.02	
				CHANNELS 3 Zrotation Xrotation Yrotation
				JOINT LeftFootTop
				{
					OFFSET 0 -0.43 -0.02	
					CHANNELS 3 Zrotation Xrotation Yrotation
					JOINT LeftFootFront
					{
						OFFSET 0 -0.07 0.085	
						CHANNELS 3 Zrotation Xrotation Yrotation
						End Site
						{
							OFFSET 0 -0.005 0.09
						}
					}
				}
				JOINT LeftHeel
				{
					OFFSET 0 -0.43 -0.02	
					CHANNELS 3 Zrotation Xrotation Yrotation
					End Site
					{
						OFFSET 0 -0.075 -0.05
					}
				}
			}
		}
	}
	JOINT RightHip
	{
		OFFSET 0 0 0	
		CHANNELS 3 Zrotation Xrotation Yrotation
		JOINT RightThigh
		{
			OFFSET -0.088 -0.06 0	
			CHANNELS 3 Zrotation Xrotation Yrotation
			JOINT RightLowerLeg
			{
				OFFSET 0 -0.39 0.02	
				CHANNELS 3 Zrotation Xrotation Yrotation
				JOINT RightFootTop
				{
					OFFSET 0 -0.43 -0.02	
					CHANNELS 3 Zrotation Xrotation Yrotation
					JOINT RightFootFront
					{
						OFFSET 0 -0.07 0.085	
						CHANNELS 3 Zrotation Xrotation Yrotation
						End Site
						{
							OFFSET 0 -0.005 0.09
						}
					}
				}
				JOINT RightHeel
				{
					OFFSET 0 -0.43 -0.02	
					CHANNELS 3 Zrotation Xrotation Yrotation
					End Site
					{
						OFFSET 0 -0.075 -0.05
					}
				}
			}
		}
	}
}
MOTION
Frames: 13
Frame Time: 0.025
0 0.54877 0 -0 0 -0 28.655 -24.03 47.392 -1.0166 23.173 1.7548 -1.0166 23.173 1.7548 -0.79475 19.467 1.43 -0 0 -0 1.3171 -26.888 3.5388 4.1141 -25.972 1.5783 -0 0 -0 -0 0 -0 -1.6714 -32.859 -16.372 -6.4196 -26.666 -5.8562 -0 0 -0 -0.58548 -10.228 -33.447 -0.58548 -10.228 -33.447 28.655 -24.03 47.392 5.4557 -55.043 4.1592 8.9267 7.1925 2.0417 -0 0 -0 -0 0 -0 -0 0 -0 28.655 -24.03 47.392 -4.2872 36.35 -40.288 83.406 -47.844 71.157 -0 0 -0 -0 0 -0 -0 0 -0 
0 0.54877 0 -0 0 -0 28.591 -24.045 47.349 -1 23.179 1.7991 -1 23.179 1.7991 -0.77967 19.472 1.4673 -0 0 -0 1.2426 -26.914 3.4556 4.1635 -26.024 1.5411 -0 0 -0 -0 0 -0 -1.6868 -32.783 -16.379 -6.4461 -26.813 -5.8457 -0 0 -0 -0.61485 -10.234 -33.482 -0.61485 -10.234 -33.482 28.591 -24.045 47.349 5.5384 -55.077 4.1916 8.9241 7.1887 2.0125 -0 0 -0 -0 0 -0 -0 0 -0 28.591 -24.045 47.349 -4.2488 36.316 -40.269 83.412 -47.844 71.147 -0 0 -0 -0 0 -0 -0 0 -0 
0 0.54877 0 -0 0 -0 28.502 -24.065 47.288 -0.97104 23.193 1.8531 -0.97103 23.193 1.853 -0.75397 19.485 1.513 -0 0 -0 1.134 -26.945 3.318 4.2392 -26.117 1.5302 -0 0 -0 -0 0 -0 -1.7305 -32.68 -16.397 -6.4732 -27.048 -5.8473 -0 0 -0 -0.66313 -10.255 -33.526 -0.66313 -10.255 -33.526 28.502 -24.065 47.288 5.6546 -55.123 4.238 8.9194 7.1813 1.9872 -0 0 -0 -0 0 -0 -0 0 -0 28.502 -24.065 47.288 -4.197 36.27 -40.242 83.422 -47.843 71.131 -0 0 -0 -0 0 -0 -0 0 -0 
0 0.54877 0 -0 0 -0 28.413 -24.091 47.226 -0.93046 23.212 1.8919 -0.93046 23.212 1.8919 -0.71903 19.501 1.5464 -0 0 -0 1.0115 -26.955 3.1531 4.3286 -26.228 1.5732 -0 0 -0 -0 0 -0 -1.8078 -32.56 -16.42 -6.4873 -27.33 -5.8728 -0 0 -0 -0.73213 -10.288 -33.558 -0.73213 -10.288 -33.558 28.413 -24.091 47.226 5.7795 -55.167 4.2919 8.913 7.1704 1.996 -0 0 -0 -0 0 -0 -0 0 -0 28.413 -24.091 47.226 -4.1431 36.227 -40.214 83.434 -47.841 71.114 -0 0 -0 -0 0 -0 -0 0 -0 
0 0.54877 0 -0 0 -0 28.331 -24.129 47.166 -0.87681 23.225 1.9093 -0.87681 23.225 1.9093 -0.67387 19.511 1.5624 -0 0 -0 0.881 -26.928 2.9769 4.4187 -26.327 1.6485 -0 0 -0 -0 0 -0 -1.9163 -32.403 -16.433 -6.4942 -27.635 -5.9235 -0 0 -0 -0.83052 -10.322 -33.571 -0.83052 -10.322 -33.571 28.331 -24.129 47.166 5.9175 -55.201 4.3636 8.9036 7.1572 2.0555 -0 0 -0 -0 0 -0 -0 0 -0 28.331 -24.129 47.166 -4.0843 36.198 -40.184 83.447 -47.839 71.097 -0 0 -0 -0 0 -0 -0 0 -0 
0 0.54877 0 -0 0 -0 28.255 -24.187 47.106 -0.8098 23.225 1.9096 -0.8098 23.225 1.9096 -0.61814 19.511 1.5646 -0 0 -0 0.74704 -26.871 2.7986 4.4903 -26.378 1.7302 -0 0 -0 -0 0 -0 -2.0468 -32.206 -16.426 -6.5107 -27.939 -5.9983 -0 0 -0 -0.95898 -10.348 -33.566 -0.95898 -10.348 -33.566 28.255 -24.187 47.106 6.0863 -55.222 4.471 8.8883 7.144 2.1831 -0 0 -0 -0 0 -0 -0 0 -0 28.255 -24.187 47.106 -4.0159 36.185 -40.151 83.457 -47.84 71.081 -0 0 -0 -0 0 -0 -0 0 -0 
0 0.54877 0 -0 0 -0 28.174 -24.259 47.04 -0.73334 23.212 1.9046 -0.73334 23.212 1.9046 -0.55474 19.5 1.5626 -0 0 -0 0.61526 -26.802 2.6271 4.5249 -26.368 1.8008 -0 0 -0 -0 0 -0 -2.1821 -31.989 -16.406 -6.5548 -28.218 -6.098 -0 0 -0 -1.1102 -10.365 -33.55 -1.1102 -10.365 -33.55 28.174 -24.259 47.04 6.3031 -55.235 4.6355 8.8644 7.1316 2.398 -0 0 -0 -0 0 -0 -0 0 -0 28.174 -24.259 47.04 -3.938 36.179 -40.111 83.46 -47.845 71.063 -0 0 -0 -0 0 -0 -0 0 -0 
0 0.54877 0 -0 0 -0 28.081 -24.332 46.96 -0.65643 23.182 1.9098 -0.65643 23.182 1.9098 -0.49073 19.474 1.5693 -0 0 -0 0.49531 -26.731 2.4716 4.5098 -26.308 1.8333 -0 0 -0 -0 0 -0 -2.3002 -31.765 -16.391 -6.6356 -28.458 -6.2258 -0 0 -0 -1.2727 -10.372 -33.534 -1.2727 -10.372 -33.534 28.081 -24.332 46.96 6.5749 -55.254 4.8769 8.8283 7.1252 2.7064 -0 0 -0 -0 0 -0 -0 0 -0 28.081 -24.332 46.96 -3.8562 36.164 -40.062 83.456 -47.852 71.046 -0 0 -0 -0 0 -0 -0 0 -0 
0 0.54877 0 -0 0 -0 27.974 -24.387 46.872 -0.58792 23.13 1.9298 -0.58792 23.13 1.9298 -0.43334 19.431 1.588 -0 0 -0 0.39656 -26.645 2.3445 4.4465 -26.22 1.8091 -0 0 -0 -0 0 -0 -2.3843 -31.533 -16.388 -6.747 -28.655 -6.3815 -0 0 -0 -1.4305 -10.356 -33.522 -1.4305 -10.356 -33.522 27.974 -24.387 46.872 6.8937 -55.3 5.2007 8.7693 7.1353 3.1018 -0 0 -0 -0 0 -0 -0 0 -0 27.974 -24.387 46.872 -3.7799 36.128 -40.013 83.449 -47.862 71.031 -0 0 -0 -0 0 -0 -0 0 -0 
0 0.54877 0 -0 0 -0 27.868 -24.416 46.793 -0.52683 23.051 1.947 -0.52683 23.051 1.947 -0.38228 19.365 1.6042 -0 0 -0 0.30985 -26.516 2.2633 4.3573 -26.128 1.7417 -0 0 -0 -0 0 -0 -2.4358 -31.277 -16.376 -6.8727 -28.805 -6.5521 -0 0 -0 -1.5756 -10.302 -33.503 -1.5756 -10.302 -33.503 27.868 -24.416 46.793 7.2372 -55.375 5.5891 8.6704 7.1678 3.5699 -0 0 -0 -0 0 -0 -0 0 -0 27.868 -24.416 46.793 -3.7155 36.076 -39.975 83.445 -47.872 71.023 -0 0 -0 -0 0 -0 -0 0 -0 
0 0.54877 0 -0 0 -0 27.78 -24.425 46.742 -0.4694 22.959 1.9412 -0.46939 22.959 1.9412 -0.33496 19.287 1.6013 -0 0 -0 0.22369 -26.353 2.2321 4.2738 -26.045 1.6736 -0 0 -0 -0 0 -0 -2.4627 -31.022 -16.325 -6.9949 -28.907 -6.7126 -0 0 -0 -1.7002 -10.221 -33.466 -1.7002 -10.221 -33.465 27.78 -24.425 46.742 7.5809 -55.462 6.0139 8.5229 7.2229 4.0918 -0 0 -0 -0 0 -0 -0 0 -0 27.78 -24.425 46.742 -3.6615 36.025 -39.962 83.446 -47.88 71.023 -0 0 -0 -0 0 -0 -0 0 -0 
0 0.54877 0 -0 0 -0 27.723 -24.428 46.724 -0.43004 22.897 1.928 -0.43004 22.897 1.928 -0.30279 19.235 1.5916 -0 0 -0 0.16634 -26.269 2.205 4.2177 -25.974 1.6486 -0 0 -0 -0 0 -0 -2.4464 -30.88 -16.267 -7.1014 -28.957 -6.8315 -0 0 -0 -1.7672 -10.17 -33.422 -1.7672 -10.17 -33.422 27.723 -24.428 46.724 7.9053 -55.549 6.4512 8.3393 7.2992 4.6449 -0 0 -0 -0 0 -0 -0 0 -0 27.723 -24.428 46.724 -3.6166 35.99 -39.975 83.452 -47.888 71.028 -0 0 -0 -0 0 -0 -0 0 -0 
0 0.54877 0 -0 0 -0 27.693 -24.43 46.731 -0.41 22.861 1.9265 -0.41 22.861 1.9265 -0.28627 19.204 1.5909 -0 0 -0 0.13527 -26.246 2.1244 4.199 -25.918 1.685 -0 0 -0 -0 0 -0 -2.3988 -30.825 -16.238 -7.1918 -28.958 -6.8895 -0 0 -0 -1.7807 -10.14 -33.396 -1.7807 -10.14 -33.396 27.693 -24.43 46.731 8.1985 -55.631 6.8849 8.1488 7.3903 5.2018 -0 0 -0 -0 0 -0 -0 0 -0 27.693 -24.43 46.731 -3.5814 35.973 -40.001 83.459 -47.894 71.03 -0 0 -0 -0 0 -0 -0 0 -0 
